<?xml version="1.0" encoding="UTF-8" standalone="no"?>
<svg
   xmlns:dc="http://purl.org/dc/elements/1.1/"
   xmlns:cc="http://creativecommons.org/ns#"
   xmlns:rdf="http://www.w3.org/1999/02/22-rdf-syntax-ns#"
   xmlns:svg="http://www.w3.org/2000/svg"
   xmlns="http://www.w3.org/2000/svg"
   xmlns:sodipodi="http://sodipodi.sourceforge.net/DTD/sodipodi-0.dtd"
   xmlns:inkscape="http://www.inkscape.org/namespaces/inkscape"
   width="1563"
   height="887"
   viewBox="0 0 413.54374 234.68542"
   version="1.1"
   id="svg823"
   inkscape:version="1.0.2 (e86c870879, 2021-01-15, custom)"
   sodipodi:docname="odor-background-path.svg"
   inkscape:export-filename="/home/walber/thoaded/images/thoaded-background.png"
   inkscape:export-xdpi="96"
   inkscape:export-ydpi="96">
  <defs
     id="defs817" />
  <sodipodi:namedview
     id="base"
     pagecolor="#ffffff"
     bordercolor="#666666"
     borderopacity="1.0"
     inkscape:pageopacity="0.0"
     inkscape:pageshadow="2"
     inkscape:zoom="0.35"
     inkscape:cx="220"
     inkscape:cy="330"
     inkscape:document-units="mm"
     inkscape:current-layer="layer1"
     showgrid="false"
     units="px"
     inkscape:window-width="1920"
     inkscape:window-height="1137"
     inkscape:window-x="-8"
     inkscape:window-y="-8"
     inkscape:window-maximized="1"
     inkscape:document-rotation="0" />
  <metadata
     id="metadata820">
    <rdf:RDF>
      <cc:Work
         rdf:about="">
        <dc:format>image/svg+xml</dc:format>
        <dc:type
           rdf:resource="http://purl.org/dc/dcmitype/StillImage" />
        <dc:title />
      </cc:Work>
    </rdf:RDF>
  </metadata>
  <g
     inkscape:label="Layer"
     inkscape:groupmode="layer"
     id="layer1"
     transform="translate(0,-62.314567)">
    <rect
       style="fill:#01579b;fill-opacity:1;fill-rule:evenodd;stroke:none;stroke-width:0.744276px;stroke-linecap:butt;stroke-linejoin:miter;stroke-opacity:1"
       id="rect3336"
       width="413.54376"
       height="234.68541"
       x="-6.1035157e-06"
       y="62.314571"
       inkscape:label="background" />
    <g
       aria-label="Odor"
       id="text3767-2-4-1"
       style="font-style:normal;font-weight:normal;font-size:50.8px;line-height:1.25;font-family:sans-serif;letter-spacing:0px;word-spacing:0px;fill:#ffffff;fill-opacity:1;stroke:none;stroke-width:0.264583"
       inkscape:label="text">
      <path
         d="m 175.43115,183.10512 v -6.8957 q 0,-6.35 -0.81856,-7.83828 -0.79375,-1.51309 -2.90214,-1.51309 -2.05879,0 -2.85254,1.53789 -0.79375,1.5379 -0.79375,7.81348 v 6.8957 q 0,6.20118 0.79375,7.78868 0.79375,1.56269 2.90215,1.56269 2.08359,0 2.87734,-1.53789 0.79375,-1.53789 0.79375,-7.81348 z m -16.47031,-3.44785 q 0,-6.8957 0.49609,-10.0707 0.49609,-3.175 1.63711,-4.96094 1.63711,-2.53008 4.29121,-3.74551 2.6541,-1.24023 6.37481,-1.24023 3.7455,0 6.35,1.24023 2.62929,1.21543 4.2664,3.74551 1.19063,1.81074 1.68672,4.98574 0.49609,3.175 0.49609,10.0459 0,6.8461 -0.49609,10.0459 -0.49609,3.175 -1.68672,4.98574 -1.6123,2.50528 -4.2664,3.74551 -2.6293,1.24024 -6.35,1.24024 -3.72071,0 -6.37481,-1.24024 -2.6541,-1.24023 -4.29121,-3.74551 -1.14102,-1.78593 -1.63711,-4.96093 -0.49609,-3.175 -0.49609,-10.07071 z"
         style="font-style:normal;font-variant:normal;font-weight:normal;font-stretch:normal;font-size:50.8px;font-family:'Swis721 BlkCn BT';-inkscape-font-specification:'Swis721 BlkCn BT';fill:#ffffff;fill-opacity:1;stroke-width:0.264583"
         id="path10" />
      <path
         d="m 199.81416,176.20942 q -1.51309,0 -2.0836,1.5627 -0.5457,1.56269 -0.5457,6.9205 0,5.58106 0.5209,6.97012 0.5209,1.36426 1.90996,1.36426 1.5875,0 2.18281,-1.66192 0.62012,-1.66191 0.62012,-8.75605 0,-3.64629 -0.59531,-5.01055 -0.57051,-1.38906 -2.00918,-1.38906 z m 10.41797,-15.65176 v 38.19922 h -7.367 v -3.15019 q -1.14101,1.93476 -2.80293,2.95175 -1.63711,1.017 -3.64628,1.017 -1.68672,0 -3.07579,-0.62012 -1.36425,-0.59531 -2.30683,-1.71152 -1.0666,-1.33946 -1.51309,-3.57188 -0.42168,-2.25723 -0.42168,-8.43359 0,-9.72344 1.63711,-12.77442 1.63711,-3.07578 5.87871,-3.07578 1.81074,0 3.175,0.81856 1.36426,0.79375 2.45567,2.48047 v -12.1295 z"
         style="font-style:normal;font-variant:normal;font-weight:normal;font-stretch:normal;font-size:50.8px;font-family:'Swis721 BlkCn BT';-inkscape-font-specification:'Swis721 BlkCn BT';fill:#ffffff;fill-opacity:1;stroke-width:0.264583"
         id="path12" />
      <path
         d="m 223.05615,184.41977 q 0,6.05235 0.5209,7.59024 0.5457,1.51308 2.00918,1.51308 1.46347,0 1.98437,-1.46347 0.54571,-1.46348 0.54571,-7.63985 0,-6.17636 -0.54571,-7.63984 -0.5209,-1.48828 -1.98437,-1.48828 -1.46348,0 -2.00918,1.53789 -0.5209,1.53789 -0.5209,7.59023 z m -8.13594,0 q 0,-8.38398 2.40606,-11.75742 2.40605,-3.37344 8.25996,-3.37344 5.8539,0 8.25996,3.34864 2.40605,3.34863 2.40605,11.78222 0,8.38399 -2.40605,11.75742 -2.40606,3.34864 -8.25996,3.34864 -5.87871,0 -8.28477,-3.32383 -2.38125,-3.34863 -2.38125,-11.78223 z"
         style="font-style:normal;font-variant:normal;font-weight:normal;font-stretch:normal;font-size:50.8px;font-family:'Swis721 BlkCn BT';-inkscape-font-specification:'Swis721 BlkCn BT';fill:#ffffff;fill-opacity:1;stroke-width:0.264583"
         id="path14" />
      <path
         d="m 240.7667,198.75688 v -28.69902 h 7.36699 v 4.01836 q 1.31465,-2.15801 2.87734,-3.27422 1.5875,-1.11621 3.57188,-1.31465 v 9.10332 q -0.66973,-0.14883 -1.28985,-0.22324 -0.59531,-0.0744 -1.0914,-0.0744 -1.93477,0 -2.70371,1.36426 -0.74414,1.36426 -0.74414,5.33301 v 13.7666 z"
         style="font-style:normal;font-variant:normal;font-weight:normal;font-stretch:normal;font-size:50.8px;font-family:'Swis721 BlkCn BT';-inkscape-font-specification:'Swis721 BlkCn BT';fill:#ffffff;fill-opacity:1;stroke-width:0.264583"
         id="path16" />
    </g>
  </g>
</svg>
