<?xml version="1.0" encoding="UTF-8" standalone="no"?>
<svg
   xmlns:dc="http://purl.org/dc/elements/1.1/"
   xmlns:cc="http://creativecommons.org/ns#"
   xmlns:rdf="http://www.w3.org/1999/02/22-rdf-syntax-ns#"
   xmlns:svg="http://www.w3.org/2000/svg"
   xmlns="http://www.w3.org/2000/svg"
   xmlns:sodipodi="http://sodipodi.sourceforge.net/DTD/sodipodi-0.dtd"
   xmlns:inkscape="http://www.inkscape.org/namespaces/inkscape"
   width="256"
   height="256"
   viewBox="0 0 256 256"
   id="svg2"
   version="1.1"
   inkscape:version="1.0.2 (e86c870879, 2021-01-15, custom)"
   sodipodi:docname="odor-path.svg">
  <defs
     id="defs4" />
  <sodipodi:namedview
     id="base"
     pagecolor="#ffffff"
     bordercolor="#666666"
     borderopacity="1.0"
     inkscape:pageopacity="0.0"
     inkscape:pageshadow="2"
     inkscape:zoom="1"
     inkscape:cx="68"
     inkscape:cy="289"
     inkscape:document-units="px"
     inkscape:current-layer="layer1"
     showgrid="false"
     showguides="false"
     inkscape:window-width="1920"
     inkscape:window-height="1137"
     inkscape:window-x="-8"
     inkscape:window-y="-8"
     inkscape:window-maximized="1"
     units="px"
     fit-margin-top="0"
     fit-margin-left="0"
     fit-margin-right="0"
     fit-margin-bottom="0"
     inkscape:document-rotation="0"
     inkscape:snap-bbox="true" />
  <metadata
     id="metadata7">
    <rdf:RDF>
      <cc:Work
         rdf:about="">
        <dc:format>image/svg+xml</dc:format>
        <dc:type
           rdf:resource="http://purl.org/dc/dcmitype/StillImage" />
        <dc:title />
        <cc:license
           rdf:resource="http://creativecommons.org/publicdomain/zero/1.0/" />
      </cc:Work>
      <cc:License
         rdf:about="http://creativecommons.org/publicdomain/zero/1.0/">
        <cc:permits
           rdf:resource="http://creativecommons.org/ns#Reproduction" />
        <cc:permits
           rdf:resource="http://creativecommons.org/ns#Distribution" />
        <cc:permits
           rdf:resource="http://creativecommons.org/ns#DerivativeWorks" />
      </cc:License>
    </rdf:RDF>
  </metadata>
  <g
     inkscape:label="Layer"
     inkscape:groupmode="layer"
     id="layer1"
     transform="translate(-1,-795.36218)">
    <rect
       style="fill:#01579b;fill-opacity:1;fill-rule:evenodd;stroke:none;stroke-width:0.611604px;stroke-linecap:butt;stroke-linejoin:miter;stroke-opacity:1"
       id="rect3336"
       width="256"
       height="256"
       x="1"
       y="795.36218"
       inkscape:label="background" />
    <g
       aria-label="Odor"
       id="text3767-2-4-1"
       style="font-style:normal;font-weight:normal;font-size:96px;line-height:1.25;font-family:sans-serif;letter-spacing:0px;word-spacing:0px;fill:#ffffff;fill-opacity:1;stroke:none;stroke-width:0.999999"
       inkscape:label="text">
      <path
         d="m 69.773437,929.87781 v -13.03125 q 0,-12 -1.546875,-14.8125 -1.5,-2.85938 -5.484375,-2.85938 -3.890625,0 -5.390625,2.90625 -1.5,2.90625 -1.5,14.76563 v 13.03125 q 0,11.71875 1.5,14.71875 1.5,2.95312 5.484375,2.95312 3.9375,0 5.4375,-2.90625 1.5,-2.90625 1.5,-14.76562 z m -31.125,-6.51563 q 0,-13.03125 0.9375,-19.03125 0.9375,-6 3.09375,-9.375 3.09375,-4.78125 8.109375,-7.07812 5.015625,-2.34375 12.046875,-2.34375 7.078125,0 12,2.34375 4.96875,2.29687 8.0625,7.07812 2.25,3.42188 3.1875,9.42188 0.9375,6 0.9375,18.98437 0,12.9375 -0.9375,18.98438 -0.9375,6 -3.1875,9.42187 -3.046875,4.73438 -8.0625,7.07813 -4.96875,2.34375 -12,2.34375 -7.03125,0 -12.046875,-2.34375 -5.015625,-2.34375 -8.109375,-7.07813 -2.15625,-3.375 -3.09375,-9.375 -0.9375,-6 -0.9375,-19.03125 z"
         style="font-style:normal;font-variant:normal;font-weight:normal;font-stretch:normal;font-size:96px;font-family:'Swis721 BlkCn BT';-inkscape-font-specification:'Swis721 BlkCn BT';fill:#ffffff;fill-opacity:1;stroke-width:0.999999"
         id="path10" />
      <path
         d="m 115.85156,916.84656 q -2.85937,0 -3.9375,2.95312 -1.03125,2.95313 -1.03125,13.07813 0,10.54687 0.98438,13.17187 0.98437,2.57813 3.60937,2.57813 3,0 4.125,-3.14063 1.17188,-3.14062 1.17188,-16.54687 0,-6.89063 -1.125,-9.46875 -1.07813,-2.625 -3.79688,-2.625 z m 19.6875,-29.57813 v 72.1875 h -13.92187 v -5.95312 q -2.15625,3.65625 -5.29688,5.57812 -3.09375,1.92188 -6.89062,1.92188 -3.1875,0 -5.8125,-1.17188 -2.57813,-1.125 -4.359378,-3.23437 -2.015625,-2.53125 -2.859375,-6.75 -0.796875,-4.26563 -0.796875,-15.9375 0,-18.375 3.09375,-24.14063 3.093748,-5.8125 11.109378,-5.8125 3.42187,0 6,1.54688 2.57812,1.5 4.64062,4.6875 v -22.92188 z"
         style="font-style:normal;font-variant:normal;font-weight:normal;font-stretch:normal;font-size:96px;font-family:'Swis721 BlkCn BT';-inkscape-font-specification:'Swis721 BlkCn BT';fill:#ffffff;fill-opacity:1;stroke-width:0.999999"
         id="path12" />
      <path
         d="m 159.77344,932.36218 q 0,11.4375 0.98437,14.34375 1.03125,2.85938 3.79688,2.85938 2.76562,0 3.75,-2.76563 1.03125,-2.76562 1.03125,-14.4375 0,-11.67187 -1.03125,-14.4375 -0.98438,-2.8125 -3.75,-2.8125 -2.76563,0 -3.79688,2.90625 -0.98437,2.90625 -0.98437,14.34375 z m -15.375,0 q 0,-15.84375 4.54687,-22.21875 4.54688,-6.375 15.60938,-6.375 11.0625,0 15.60937,6.32813 4.54688,6.32812 4.54688,22.26562 0,15.84375 -4.54688,22.21875 -4.54687,6.32813 -15.60937,6.32813 -11.10938,0 -15.65625,-6.28125 -4.5,-6.32813 -4.5,-22.26563 z"
         style="font-style:normal;font-variant:normal;font-weight:normal;font-stretch:normal;font-size:96px;font-family:'Swis721 BlkCn BT';-inkscape-font-specification:'Swis721 BlkCn BT';fill:#ffffff;fill-opacity:1;stroke-width:0.999999"
         id="path14" />
      <path
         d="m 193.24219,959.45593 v -54.23437 h 13.92187 v 7.59375 q 2.48438,-4.07813 5.4375,-6.1875 3,-2.10938 6.75,-2.48438 v 17.20313 q -1.26562,-0.28125 -2.4375,-0.42188 -1.125,-0.14062 -2.0625,-0.14062 -3.65625,0 -5.10937,2.57812 -1.40625,2.57813 -1.40625,10.07813 v 26.01562 z"
         style="font-style:normal;font-variant:normal;font-weight:normal;font-stretch:normal;font-size:96px;font-family:'Swis721 BlkCn BT';-inkscape-font-specification:'Swis721 BlkCn BT';fill:#ffffff;fill-opacity:1;stroke-width:0.999999"
         id="path16" />
    </g>
  </g>
</svg>
